<svg xmlns="http://www.w3.org/2000/svg" viewBox="0 0 512 512" role="img" aria-label="NepalStudy icon">
  <defs>
    <linearGradient id="bg" x1="0" y1="0" x2="1" y2="1">
      <stop offset="0" stop-color="#7b1014"/>
      <stop offset="0.55" stop-color="#b5161e"/>
      <stop offset="1" stop-color="#f0a22e"/>
    </linearGradient>
    <linearGradient id="card" x1="0" y1="0" x2="0" y2="1">
      <stop offset="0" stop-color="#fff8e7"/>
      <stop offset="1" stop-color="#ffd984"/>
    </linearGradient>
    <filter id="shadow" x="-20%" y="-20%" width="140%" height="140%">
      <feDropShadow dx="0" dy="18" stdDeviation="18" flood-color="#3c0607" flood-opacity="0.35"/>
    </filter>
  </defs>
  <rect width="512" height="512" rx="104" fill="url(#bg)"/>
  <path d="M42 123c34-10 61-10 92 0 34 10 63 10 96 0 34-11 65-11 99 0 40 13 81 10 141-3" fill="none" stroke="#4f130f" stroke-width="5" opacity="0.45"/>
  <g opacity="0.92">
    <rect x="56" y="100" width="48" height="34" rx="4" fill="#2460b9" transform="rotate(-5 80 117)"/>
    <rect x="122" y="103" width="48" height="34" rx="4" fill="#f5e7c8" transform="rotate(3 146 120)"/>
    <rect x="188" y="101" width="48" height="34" rx="4" fill="#db2026" transform="rotate(-2 212 118)"/>
    <rect x="254" y="103" width="48" height="34" rx="4" fill="#26864d" transform="rotate(4 278 120)"/>
    <rect x="320" y="100" width="48" height="34" rx="4" fill="#f0b63b" transform="rotate(-4 344 117)"/>
  </g>
  <path d="M0 382l72-67 58 47 59-74 64 83 65-102 70 112 49-60 75 72v119H0z" fill="#64100f" opacity="0.28"/>
  <g filter="url(#shadow)">
    <rect x="184" y="156" width="228" height="260" rx="40" fill="#e7a42d" opacity="0.88"/>
    <rect x="150" y="136" width="232" height="276" rx="42" fill="#f2bd47" opacity="0.96"/>
    <rect x="118" y="116" width="242" height="290" rx="44" fill="url(#card)"/>
    <path d="M118 337c48-47 76-60 109-22 30-59 62-84 94-2 16-25 29-38 39-44v91H118z" fill="#d88b13" opacity="0.92"/>
    <path d="M165 339l41-41 22 24 35-64 33 64 18-21 34 38z" fill="#fff6de" opacity="0.82"/>
    <text x="239" y="248" text-anchor="middle" dominant-baseline="middle" font-size="160" font-weight="900" font-family="Noto Sans Devanagari, Devanagari Sangam MN, sans-serif" fill="#961318">ने</text>
  </g>
</svg>
